<?xml version="1.0" encoding="UTF-8"?>
<svg width="128px" height="58px" viewBox="0 0 128 58" version="1.1" xmlns="http://www.w3.org/2000/svg" xmlns:xlink="http://www.w3.org/1999/xlink">
    <!-- Generator: sketchtool 52.1 (67048) - http://www.bohemiancoding.com/sketch -->
    <title>BE2CC770-D275-41BB-AAE9-4AC3F98DFCD2</title>
    <desc>Created with sketchtool.</desc>
    <defs>
        <polygon id="path-1" points="0 0.1004625 23.6668401 0.1004625 23.6668401 21.971884 0 21.971884"></polygon>
    </defs>
    <g id="CHIME-FINAL***" stroke="none" stroke-width="1" fill="none" fill-rule="evenodd">
        <g id="Desktop-01" transform="translate(-286.000000, -92.000000)">
            <g id="Veris-Logo" transform="translate(286.000000, 92.000000)">
                <g id="Logo-Veris">
                    <g id="Group-3" transform="translate(0.000000, 15.164349)">
                        <mask id="mask-2" fill="white">
                            <use xlink:href="#path-1"></use>
                        </mask>
                        <g id="Clip-2"></g>
                        <path d="M4.4542288,5.50064147 C3.65715087,3.54371284 3.17879009,1.84526257 1.26534695,1.58138147 L0.203716697,1.42356464 C-0.11386013,0.99703268 -0.0596953208,0.258279325 0.363075266,0.1004625 C1.69296386,0.203114525 3.54967649,0.258279325 5.35650048,0.258279325 C6.7881619,0.258279325 7.85321309,0.203114525 9.65547583,0.1004625 C10.0286429,0.312022352 10.080527,1.16138966 9.70507939,1.42356464 L9.06964066,1.53019763 C7.42445586,1.79208825 7.37143137,2.05682242 7.90310173,3.64693357 C9.12409055,7.30145941 10.6663622,11.0091596 11.8830749,13.7622812 C12.3611506,14.822924 12.5738187,15.3006398 12.732322,15.4550444 C12.9469857,15.3006398 13.3190124,14.5561993 13.7440637,13.4429509 C14.432812,11.6446922 16.2407763,7.03615653 16.7676003,5.65732088 C17.5116537,3.80730959 17.7243219,2.6926394 17.7243219,2.3741622 C17.7243219,1.89815254 17.4076003,1.68687704 16.7676003,1.58138147 L15.5511727,1.42356464 C15.2335959,1.05134442 15.2829144,0.312022352 15.6540859,0.1004625 C17.3038319,0.203114525 18.6291593,0.258279325 19.634059,0.258279325 C20.9639476,0.258279325 21.8636536,0.203114525 23.3529007,0.1004625 C23.7192259,0.312022352 23.778237,1.10366567 23.4595199,1.42356464 L22.6644375,1.53019763 C20.8023084,1.79208825 20.3285089,3.1703552 18.7859521,6.13844893 C18.0441793,7.56619358 14.7518142,15.245475 13.9048476,17.4170914 C13.3689011,18.7427527 12.8397964,19.9558096 12.1487675,21.7580493 C12.0458544,21.91416 11.8331862,21.971884 11.6196628,21.971884 C11.3551105,21.971884 11.0871372,21.91416 10.9334802,21.7580493 C10.5024424,20.2785521 9.70507939,18.2110095 8.91256272,16.2532278 L4.4542288,5.50064147 Z" id="Fill-1" fill="#1A2741" mask="url(#mask-2)"></path>
                    </g>
                    <path d="M29.9973839,21.1410856 C33.9266131,21.1410856 35.0971432,20.9286727 35.5221944,20.6119016 C35.6792723,20.5072591 35.8363503,20.2968367 35.8363503,19.6061393 C35.8363503,18.121808 34.8323058,16.2681001 31.7523237,16.2681001 C28.619032,16.2681001 25.9099363,19.1289922 25.8554864,20.8769202 C25.8554864,20.985828 25.8554864,21.1410856 26.2312191,21.1410856 L29.9973839,21.1410856 Z M26.704734,22.7306284 C25.3275223,22.7306284 25.2744978,22.8332804 25.2744978,24.1592262 C25.2744978,29.508506 28.405224,34.0638676 34.0862577,34.0638676 C35.8363514,34.0638676 37.3244583,33.5349679 38.9707836,31.4699844 C39.5021689,31.3090397 39.8707747,31.6266638 39.9275052,32.1055171 C38.1748459,35.7037409 34.3530907,37.0274118 31.5892598,37.0274118 C28.1406717,37.0274118 25.4349967,35.5470615 23.8935802,33.5349679 C22.2982839,31.4699844 21.6639854,28.9798907 21.6639854,26.6487512 C21.6639854,20.1373139 25.9643865,14.6799793 32.3333133,14.6799793 C36.899122,14.6799793 39.8707747,17.8070275 39.8707747,20.9858282 C39.8707747,21.7245816 39.7670063,22.1462796 39.6595319,22.3595456 C39.5021689,22.6757479 38.7606811,22.7306284 36.529661,22.7306284 L26.704734,22.7306284 Z" id="Fill-4" fill="#1A2741"></path>
                    <path d="M44.4482418,21.0890205 C44.4482418,19.0246057 44.4482418,18.7601559 43.0168654,17.8069991 L42.5385046,17.4868157 C42.3235558,17.2752559 42.3235558,16.6943193 42.5926694,16.5353651 C43.812803,16.1102548 46.6248119,14.7325565 47.9501393,13.9394914 C48.2146916,13.9929501 48.3797518,14.0992987 48.3797518,14.3100055 L48.3797518,17.3847324 C48.3797518,17.6432108 48.4293553,17.8069991 48.5368297,17.8570455 C50.3946827,16.3257957 52.410754,14.6799509 54.3792172,14.6799509 C55.702264,14.6799509 56.763039,15.5276122 56.763039,16.7975401 C56.763039,18.5440464 55.3313776,19.2353125 54.4846961,19.2353125 C53.9484644,19.2353125 53.6896137,19.076927 53.314166,18.8630923 C52.5216493,18.3347613 51.723431,18.0174215 50.9793776,18.0174215 C50.1289901,18.0174215 49.492411,18.4925782 49.0673598,19.076927 C48.5368297,19.8179552 48.3797518,21.3506268 48.3797518,23.1548571 L48.3797518,30.3584137 C48.3797518,34.1687661 48.4826649,34.8031613 50.5035825,34.9643904 L52.410754,35.1202168 C52.7862016,35.3892163 52.6787273,36.2880613 52.3078408,36.4447408 C49.8111282,36.3395295 48.2771237,36.2880613 46.4169901,36.2880613 C44.5061126,36.2880613 42.909391,36.3395295 41.5273331,36.4447408 C41.1590124,36.2880613 41.0481171,35.3892163 41.4201438,35.1202168 L42.4355915,34.9643904 C44.3972128,34.6476193 44.4482418,34.1687661 44.4482418,30.3584137 L44.4482418,21.0890205 Z" id="Fill-6" fill="#1A2741"></path>
                    <path d="M65.2256625,9.16111086 C65.2256625,11.0148188 63.8980544,11.8633331 62.4621167,11.8633331 C60.8169318,11.8633331 59.7553015,10.6960573 59.7553015,9.26603772 C59.7553015,7.51953144 61.0837648,6.45831988 62.6226156,6.45831988 C64.2170567,6.45831988 65.2256625,7.67621086 65.2256625,9.16111086 Z M60.8713817,21.0889357 C60.8713817,19.0245209 60.8713817,18.7577962 59.438865,17.8071986 L58.9602191,17.4867309 C58.7455554,17.275171 58.7455554,16.6945188 59.0135286,16.5352802 C60.2345175,16.11017 63.2580544,14.7324717 64.4830344,13.9394065 C64.7473016,13.9394065 64.9576892,14.0437647 65.0095734,14.2558933 C64.9055199,16.11017 64.7971903,18.6511632 64.7971903,20.8216423 L64.7971903,30.3583288 C64.7971903,34.1686812 64.9055199,34.6981496 66.8178229,34.9645899 L67.9290567,35.1201319 C68.3033641,35.3891314 68.19703,36.2879765 67.8287093,36.4446559 C66.233128,36.3394447 64.6942771,36.2879765 62.8341435,36.2879765 C60.9244062,36.2879765 59.3311055,36.3394447 57.8421433,36.4446559 C57.4735375,36.2879765 57.3683437,35.3891314 57.7380899,35.1201319 L58.8530298,34.9645899 C60.8169318,34.6981496 60.8713817,34.1686812 60.8713817,30.3583288 L60.8713817,21.0889357 Z" id="Fill-8" fill="#1A2741"></path>
                    <path d="M82.5405292,15.6347566 C83.01889,16.7974827 83.3897765,18.4925207 83.3897765,19.9228245 C83.175968,20.2967509 82.3800304,20.4039526 82.1106317,20.0840536 C81.212066,17.7517769 79.6199056,16.2154087 77.4444758,16.2154087 C75.3739546,16.2154087 74.0454914,17.5385109 74.0454914,19.4473836 C74.0454914,21.6164408 76.2742308,22.7859914 78.1340794,23.8420845 C80.9438076,25.4293521 83.5434335,27.2296014 83.5434335,30.9938881 C83.5434335,35.0163688 79.8325738,37.0273249 75.9030593,37.0273249 C73.4066317,37.0273249 71.5533399,36.4989939 70.2211707,35.4429008 C69.7949791,34.4331575 69.4796829,31.8398432 69.5848767,30.0910621 C69.8502842,29.7740067 70.5401729,29.720548 70.8081462,30.0373191 C71.7069969,32.9505324 73.4066317,35.4918098 76.4298834,35.4918098 C78.3490281,35.4918098 79.9896517,34.3842485 79.9896517,32.1054304 C79.9896517,29.6676581 77.8663912,28.346262 75.9030593,27.2296014 C72.8242174,25.4836639 70.646507,23.6285342 70.646507,20.7167427 C70.646507,16.8512257 73.8339635,14.680178 77.8663912,14.680178 C80.0937052,14.680178 82.0621684,15.2107838 82.5405292,15.6347566" id="Fill-10" fill="#1A2741"></path>
                    <path d="M122.19784,10.4750003 L112.134588,10.4750003 L112.134588,26.4779108 C112.134588,29.0265814 110.078606,31.0821811 107.522597,31.0821811 C104.966588,31.0821811 102.907185,29.0265814 102.907185,26.4779108 L102.907185,10.4750003 L92.8439329,10.4750003 C90.2383204,10.4750003 89.2610732,12.2627379 90.6699285,14.4491407 L104.95718,36.6080448 C106.366891,38.7970069 108.673171,38.7970069 110.084307,36.6080448 L124.37327,14.4491407 C125.78241,12.2627379 124.804307,10.4750003 122.19784,10.4750003" id="Fill-12" fill="#0071CE"></path>
                    <path d="M107.522596,9.2040199 C110.078605,9.2040199 112.134587,7.15325413 112.134587,4.60230852 C112.134587,2.10794949 110.078605,2.84354656e-05 107.522596,2.84354656e-05 C104.966587,2.84354656e-05 102.907184,2.10794949 102.907184,4.60230852 C102.907184,7.15325413 104.966587,9.2040199 107.522596,9.2040199" id="Fill-14" fill="#1A2741"></path>
                    <path d="M1.22150207,54.0437631 L1.22150207,54.024427 C1.22150207,52.0950807 2.66969811,50.5154906 4.72995652,50.5154906 C5.77932849,50.5154906 6.46921715,50.8257215 7.06189423,51.2809733 C7.18846884,51.3779382 7.29537308,51.5428639 7.29537308,51.7561299 C7.29537308,52.085697 7.03281628,52.3376352 6.702696,52.3376352 C6.53706571,52.3376352 6.42046882,52.2796269 6.34292762,52.2213342 C5.87654007,51.8434268 5.37109685,51.6105404 4.71997879,51.6105404 C3.42743532,51.6105404 2.47498986,52.6768703 2.47498986,54.0048066 L2.47498986,54.024427 C2.47498986,55.3523633 3.41774267,56.4283613 4.71997879,56.4283613 C5.43923048,56.4283613 5.92500333,56.1954748 6.42046882,55.7788953 C6.50798775,55.7012664 6.63427729,55.6429737 6.78023721,55.6429737 C7.08156461,55.6429737 7.34383633,55.8951963 7.34383633,56.1954748 C7.34383633,56.3797366 7.2563174,56.5253262 7.14941316,56.6220068 C6.50798775,57.184176 5.77932849,57.5330791 4.68120819,57.5330791 C2.69877606,57.5330791 1.22150207,55.9921612 1.22150207,54.0437631" id="Fill-16" fill="#1A2741"></path>
                    <path d="M8.78162692,54.5380272 L8.78162692,51.174396 C8.78162692,50.8451133 9.04389863,50.5832227 9.38399662,50.5832227 C9.71440196,50.5832227 9.97667368,50.8451133 9.97667368,51.174396 L9.97667368,54.4894025 C9.97667368,55.7496623 10.6280768,56.4184645 11.696834,56.4184645 C12.7558986,56.4184645 13.4073017,55.7883346 13.4073017,54.5380272 L13.4073017,51.174396 C13.4073017,50.8451133 13.6695734,50.5832227 14.0096714,50.5832227 C14.3400767,50.5832227 14.6023485,50.8451133 14.6023485,51.174396 L14.6023485,54.4797345 C14.6023485,56.5057613 13.455765,57.5234666 11.6774487,57.5234666 C9.90882513,57.5234666 8.78162692,56.5057613 8.78162692,54.5380272" id="Fill-18" fill="#1A2741"></path>
                    <path d="M16.5065832,51.1743659 C16.5065832,50.8450833 16.768855,50.5831926 17.108953,50.5831926 C17.4393583,50.5831926 17.70163,50.8450833 17.70163,51.1743659 L17.70163,56.8739704 C17.70163,57.2035374 17.4393583,57.4654281 17.108953,57.4654281 C16.768855,57.4654281 16.5065832,57.2035374 16.5065832,56.8739704 L16.5065832,51.1743659 Z" id="Fill-20" fill="#1A2741"></path>
                    <path d="M22.2493361,56.3313689 C23.6778617,56.3313689 24.6106368,55.3716719 24.6106368,54.0437357 L24.6106368,54.0243996 C24.6106368,52.6964633 23.6778617,51.7171459 22.2493361,51.7171459 L20.9083293,51.7171459 L20.9083293,56.3313689 L22.2493361,56.3313689 Z M19.7132825,51.2326056 C19.7132825,50.8933705 19.9752692,50.6317642 20.3156522,50.6317642 L22.2493359,50.6317642 C24.3871354,50.6317642 25.8644093,52.0953376 25.8644093,54.0047792 L25.8644093,54.0243996 C25.8644093,55.9338412 24.3871354,57.4167507 22.2493359,57.4167507 L20.3156522,57.4167507 C19.9752692,57.4167507 19.7132825,57.1551444 19.7132825,56.8159093 L19.7132825,51.2326056 Z" id="Fill-22" fill="#1A2741"></path>
                    <path d="M31.2281811,54.7221481 L30.0331343,51.979263 L28.8375173,54.7221481 L31.2281811,54.7221481 Z M26.777544,56.6412576 L29.30419,51.019566 C29.4404573,50.7190032 29.6830586,50.5347413 30.0231566,50.5347413 L30.0815976,50.5347413 C30.4216956,50.5347413 30.6548894,50.7190032 30.7911566,51.019566 L33.3175175,56.6412576 C33.3662659,56.7288389 33.3856512,56.8158514 33.3856512,56.8934802 C33.3856512,57.2133792 33.1427647,57.4653174 32.822052,57.4653174 C32.540395,57.4653174 32.3459718,57.3003917 32.2390676,57.0487379 L31.6851611,55.77881 L28.3811076,55.77881 L27.8075307,57.0871258 C27.7103191,57.3296803 27.5062033,57.4653174 27.2539093,57.4653174 C26.9428892,57.4653174 26.6997177,57.2230473 26.6997177,56.9128163 C26.6997177,56.8255195 26.7290808,56.7385069 26.777544,56.6412576 Z" id="Fill-24" fill="#1A2741"></path>
                    <path d="M37.8164175,53.995167 C38.6716514,53.995167 39.2158652,53.5492989 39.2158652,52.8611606 L39.2158652,52.8415401 C39.2158652,52.1147296 38.6910367,51.7172018 37.8067249,51.7172018 L36.0671792,51.7172018 L36.0671792,53.995167 L37.8164175,53.995167 Z M34.8721324,51.2326615 C34.8721324,50.8934264 35.1344041,50.6318201 35.4745021,50.6318201 L37.9039363,50.6318201 C38.7591702,50.6318201 39.4296735,50.8837583 39.866698,51.3102903 C40.2264663,51.6785296 40.4305821,52.1826904 40.4305821,52.7738637 L40.4305821,52.7931999 C40.4305821,53.878866 39.7988494,54.5380001 38.8854597,54.8189425 L40.1874107,56.4571097 C40.3042926,56.6026993 40.3818338,56.7286684 40.3818338,56.9129302 C40.3818338,57.2424972 40.1001768,57.4654313 39.8085421,57.4654313 C39.5365777,57.4654313 39.3615399,57.3394622 39.2255577,57.1552004 L37.5732459,55.0518289 L36.0671792,55.0518289 L36.0671792,56.8739736 C36.0671792,57.2035407 35.8049074,57.4654313 35.4745021,57.4654313 C35.1344041,57.4654313 34.8721324,57.2035407 34.8721324,56.8739736 L34.8721324,51.2326615 Z" id="Fill-26" fill="#1A2741"></path>
                    <path d="M43.7342939,51.7367063 L42.0822672,51.7367063 C41.7712472,51.7367063 41.5286458,51.4844837 41.5286458,51.1842052 C41.5286458,50.8836423 41.7712472,50.6317041 42.0822672,50.6317041 L46.6013229,50.6317041 C46.9023652,50.6317041 47.1455367,50.8836423 47.1455367,51.1842052 C47.1455367,51.4844837 46.9023652,51.7367063 46.6013229,51.7367063 L44.9396035,51.7367063 L44.9396035,56.8738576 C44.9396035,57.203709 44.667069,57.4653153 44.3369487,57.4653153 C44.0065434,57.4653153 43.7342939,57.203709 43.7342939,56.8738576 L43.7342939,51.7367063 Z" id="Fill-28" fill="#1A2741"></path>
                    <path d="M48.5541907,56.8159351 L48.5541907,51.2326314 C48.5541907,50.8933963 48.8164624,50.63179 49.1565603,50.63179 L53.1117317,50.63179 C53.4033664,50.63179 53.6459677,50.8740602 53.6459677,51.1646706 C53.6459677,51.4655179 53.4033664,51.6978356 53.1117317,51.6978356 L49.7492374,51.6978356 L49.7492374,53.4619719 L52.6744221,53.4619719 C52.9660569,53.4619719 53.2089433,53.7045264 53.2089433,54.0048049 C53.2089433,54.2956998 52.9660569,54.5283019 52.6744221,54.5283019 L49.7492374,54.5283019 L49.7492374,56.3504465 L53.1601949,56.3504465 C53.4518297,56.3504465 53.6947161,56.593001 53.6947161,56.8836115 C53.6947161,57.1841744 53.4518297,57.4167765 53.1601949,57.4167765 L49.1565603,57.4167765 C48.8164624,57.4167765 48.5541907,57.1551702 48.5541907,56.8159351" id="Fill-30" fill="#1A2741"></path>
                    <path d="M58.3684853,56.8159351 L58.3684853,51.2326314 C58.3684853,50.8933963 58.630757,50.63179 58.970855,50.63179 L62.9260263,50.63179 C63.2176611,50.63179 63.4602624,50.8740602 63.4602624,51.1646706 C63.4602624,51.4655179 63.2176611,51.6978356 62.9260263,51.6978356 L59.563532,51.6978356 L59.563532,53.4619719 L62.4887168,53.4619719 C62.7803515,53.4619719 63.0232379,53.7045264 63.0232379,54.0048049 C63.0232379,54.2956998 62.7803515,54.5283019 62.4887168,54.5283019 L59.563532,54.5283019 L59.563532,56.3504465 L62.9744896,56.3504465 C63.2661243,56.3504465 63.5090107,56.593001 63.5090107,56.8836115 C63.5090107,57.1841744 63.2661243,57.4167765 62.9744896,57.4167765 L58.970855,57.4167765 C58.630757,57.4167765 58.3684853,57.1551702 58.3684853,56.8159351" id="Fill-32" fill="#1A2741"></path>
                    <path d="M64.8982818,56.6607053 C64.7622997,56.5637404 64.6653731,56.399099 64.6653731,56.2051692 C64.6653731,55.8952226 64.9176671,55.6526681 65.2286872,55.6526681 C65.3937473,55.6526681 65.5006515,55.7012927 65.5787629,55.7593011 C66.1420769,56.2051692 66.7447317,56.4571074 67.4830836,56.4571074 C68.2217206,56.4571074 68.6883932,56.1084886 68.6883932,55.6043278 L68.6883932,55.5849917 C68.6883932,55.100167 68.4161438,54.8385607 67.1529634,54.5476659 C65.7047674,54.1987627 64.8885892,53.7722308 64.8885892,52.521639 L64.8885892,52.5025872 C64.8885892,51.3392924 65.8604199,50.534853 67.2111193,50.534853 C68.0663531,50.534853 68.7562418,50.7575027 69.3685892,51.1646986 C69.5045714,51.2423274 69.631146,51.4069688 69.631146,51.6398552 C69.631146,51.9500862 69.3782819,52.1923563 69.0672618,52.1923563 C68.9506649,52.1923563 68.8534533,52.1633521 68.7562418,52.1050594 C68.2314133,51.7658243 67.7262551,51.5912306 67.191734,51.5912306 C66.4921527,51.5912306 66.083921,51.9500862 66.083921,52.3959542 L66.083921,52.415006 C66.083921,52.9385029 66.3949411,53.1713894 67.7068698,53.481336 C69.144803,53.8305235 69.88344,54.3443523 69.88344,55.4686906 L69.88344,55.4880267 C69.88344,56.7576703 68.8828164,57.5137693 67.4542908,57.5137693 C66.5312083,57.5137693 65.6563041,57.2231588 64.8982818,56.6607053" id="Fill-34" fill="#1A2741"></path>
                    <path d="M76.2674457,51.7367063 L74.6154189,51.7367063 C74.3043989,51.7367063 74.0617976,51.4844837 74.0617976,51.1842052 C74.0617976,50.8836423 74.3043989,50.6317041 74.6154189,50.6317041 L79.1344746,50.6317041 C79.435517,50.6317041 79.6786885,50.8836423 79.6786885,51.1842052 C79.6786885,51.4844837 79.435517,51.7367063 79.1344746,51.7367063 L77.4727553,51.7367063 L77.4727553,56.8738576 C77.4727553,57.203709 77.2002207,57.4653153 76.8701005,57.4653153 C76.5396951,57.4653153 76.2674457,57.203709 76.2674457,56.8738576 L76.2674457,51.7367063 Z" id="Fill-36" fill="#1A2741"></path>
                    <path d="M84.371845,54.7221481 L83.1767982,51.979263 L81.9811812,54.7221481 L84.371845,54.7221481 Z M79.9212079,56.6412576 L82.4478539,51.019566 C82.5841212,50.7190032 82.8267225,50.5347413 83.1668205,50.5347413 L83.2252615,50.5347413 C83.5653595,50.5347413 83.7985533,50.7190032 83.9348206,51.019566 L86.4611814,56.6412576 C86.5099298,56.7288389 86.5293151,56.8158514 86.5293151,56.8934802 C86.5293151,57.2133792 86.2864287,57.4653174 85.9657159,57.4653174 C85.6840589,57.4653174 85.4896358,57.3003917 85.3827315,57.0487379 L84.828825,55.77881 L81.5247715,55.77881 L80.9511946,57.0871258 C80.853983,57.3296803 80.6498672,57.4653174 80.3975732,57.4653174 C80.0865531,57.4653174 79.8433816,57.2230473 79.8433816,56.9128163 C79.8433816,56.8255195 79.8727447,56.7385069 79.9212079,56.6412576 Z" id="Fill-38" fill="#1A2741"></path>
                    <path d="M88.0157621,51.1938181 C88.0157621,50.864251 88.2780338,50.5929767 88.6181318,50.5929767 L88.7447064,50.5929767 C89.036056,50.5929767 89.2011162,50.7382819 89.3664614,50.9418798 L92.7677263,55.3328842 L92.7677263,51.1645295 C92.7677263,50.8449149 93.029998,50.5833086 93.3507107,50.5833086 C93.681116,50.5833086 93.9433878,50.8449149 93.9433878,51.1645295 L93.9433878,56.864134 C93.9433878,57.1939854 93.6908087,57.4555917 93.3604034,57.4555917 L93.311655,57.4555917 C93.029998,57.4555917 92.8552452,57.3102864 92.6899,57.0970204 L89.1914235,52.5800469 L89.1914235,56.8837545 C89.1914235,57.2036534 88.9291518,57.4655441 88.6084391,57.4655441 C88.2780338,57.4655441 88.0157621,57.2036534 88.0157621,56.8837545 L88.0157621,51.1938181 Z" id="Fill-40" fill="#1A2741"></path>
                    <path d="M98.9959995,51.2326873 C98.9959995,50.8934521 99.2582712,50.6318459 99.5983692,50.6318459 L103.563233,50.6318459 C103.864561,50.6318459 104.107447,50.8738317 104.107447,51.1743945 C104.107447,51.4749574 103.864561,51.7172276 103.563233,51.7172276 L100.191046,51.7172276 L100.191046,53.5686608 L103.125924,53.5686608 C103.427251,53.5686608 103.670137,53.810931 103.670137,54.1114938 C103.670137,54.4120567 103.427251,54.6543269 103.125924,54.6543269 L100.191046,54.6543269 L100.191046,56.8739994 C100.191046,57.2035664 99.9287745,57.4654571 99.5983692,57.4654571 C99.2582712,57.4654571 98.9959995,57.2035664 98.9959995,56.8739994 L98.9959995,51.2326873 Z" id="Fill-42" fill="#1A2741"></path>
                    <path d="M107.430859,49.8173123 C107.430859,49.7496359 107.469914,49.662339 107.5084,49.6043307 L108.062591,48.7512667 C108.169496,48.5766729 108.324863,48.4703243 108.528979,48.4703243 C108.839714,48.4703243 109.228845,48.6639698 109.228845,48.8482316 C109.228845,48.9548646 109.160427,49.0518296 109.0635,49.1388421 L108.412382,49.759304 C108.179188,49.97257 107.994743,50.0211946 107.722208,50.0211946 C107.557148,50.0211946 107.430859,49.9432814 107.430859,49.8173123 Z M108.946618,54.7221456 L107.751571,51.9792606 L106.556239,54.7221456 L108.946618,54.7221456 Z M104.495981,56.6412554 L107.022627,51.0195638 C107.158894,50.7190009 107.401496,50.5347391 107.741879,50.5347391 L107.800035,50.5347391 C108.140133,50.5347391 108.373612,50.7190009 108.509594,51.0195638 L111.035955,56.6412554 C111.084703,56.7288366 111.104373,56.8158491 111.104373,56.8934779 C111.104373,57.2133769 110.861202,57.4653152 110.540489,57.4653152 C110.258832,57.4653152 110.064409,57.3003895 109.957505,57.0487356 L109.403598,55.7788077 L106.099545,55.7788077 L105.525968,57.0871235 C105.429041,57.329678 105.224925,57.4653152 104.972346,57.4653152 C104.661326,57.4653152 104.41844,57.223045 104.41844,56.9128141 C104.41844,56.8255172 104.447518,56.7385047 104.495981,56.6412554 Z" id="Fill-44" fill="#1A2741"></path>
                    <path d="M111.997661,54.0437631 L111.997661,54.024427 C111.997661,52.0950807 113.445857,50.5154906 115.506116,50.5154906 C116.555488,50.5154906 117.245376,50.8257215 117.838054,51.2809733 C117.964628,51.3779382 118.071532,51.5428639 118.071532,51.7561299 C118.071532,52.085697 117.808976,52.3376352 117.478855,52.3376352 C117.313225,52.3376352 117.196628,52.2796269 117.119087,52.2213342 C116.652699,51.8434268 116.147256,51.6105404 115.496138,51.6105404 C114.203595,51.6105404 113.251149,52.6768703 113.251149,54.0048066 L113.251149,54.024427 C113.251149,55.3523633 114.193902,56.4283613 115.496138,56.4283613 C116.21539,56.4283613 116.701163,56.1954748 117.196628,55.7788953 C117.284147,55.7012664 117.410437,55.6429737 117.556397,55.6429737 C117.857724,55.6429737 118.119996,55.8951963 118.119996,56.1954748 C118.119996,56.3797366 118.032477,56.5253262 117.925572,56.6220068 C117.284147,57.184176 116.555488,57.5330791 115.457368,57.5330791 C113.474935,57.5330791 111.997661,55.9921612 111.997661,54.0437631" id="Fill-46" fill="#1A2741"></path>
                    <path d="M119.732627,51.1743659 C119.732627,50.8450833 119.994899,50.5831926 120.334997,50.5831926 C120.665403,50.5831926 120.927674,50.8450833 120.927674,51.1743659 L120.927674,56.8739704 C120.927674,57.2035374 120.665403,57.4654281 120.334997,57.4654281 C119.994899,57.4654281 119.732627,57.2035374 119.732627,56.8739704 L119.732627,51.1743659 Z" id="Fill-48" fill="#1A2741"></path>
                    <path d="M122.939213,51.174366 C122.939213,50.8450833 123.201485,50.5831926 123.541583,50.5831926 C123.871988,50.5831926 124.13426,50.8450833 124.13426,51.174366 L124.13426,56.3314221 L127.214812,56.3314221 C127.51614,56.3314221 127.759026,56.5734079 127.759026,56.8739708 C127.759026,57.1745337 127.51614,57.4168039 127.214812,57.4168039 L123.541583,57.4168039 C123.201485,57.4168039 122.939213,57.1551976 122.939213,56.8159625 L122.939213,51.174366 Z" id="Fill-50" fill="#1A2741"></path>
                </g>
            </g>
        </g>
    </g>
</svg>